<mxfile host="app.diagrams.net" modified="2022-04-21T05:12:52.971Z" agent="5.0 (Windows NT 10.0; Win64; x64) AppleWebKit/537.36 (KHTML, like Gecko) Chrome/100.0.4896.127 Safari/537.36" etag="Q-VC9FgvIYAbST6EOekg" version="17.4.6" type="github">
  <diagram id="sCAbLjGPMe6iRs3PfZDn" name="Page-1">
    <mxGraphModel dx="536" dy="497" grid="1" gridSize="10" guides="1" tooltips="1" connect="1" arrows="1" fold="1" page="1" pageScale="1" pageWidth="827" pageHeight="1169" math="0" shadow="0">
      <root>
        <mxCell id="0" />
        <mxCell id="1" parent="0" />
        <mxCell id="i2tNPv83OjAkMCDNKR-X-131" style="edgeStyle=orthogonalEdgeStyle;rounded=0;orthogonalLoop=1;jettySize=auto;html=1;exitX=1;exitY=0.5;exitDx=0;exitDy=0;entryX=0;entryY=0.5;entryDx=0;entryDy=0;" edge="1" parent="1" source="i2tNPv83OjAkMCDNKR-X-2" target="i2tNPv83OjAkMCDNKR-X-55">
          <mxGeometry relative="1" as="geometry" />
        </mxCell>
        <mxCell id="i2tNPv83OjAkMCDNKR-X-2" value="Pembimbing" style="rounded=0;whiteSpace=wrap;html=1;fillColor=#99CCFF;" vertex="1" parent="1">
          <mxGeometry x="190" y="190" width="120" height="60" as="geometry" />
        </mxCell>
        <mxCell id="i2tNPv83OjAkMCDNKR-X-40" style="edgeStyle=orthogonalEdgeStyle;rounded=0;orthogonalLoop=1;jettySize=auto;html=1;exitX=1;exitY=1;exitDx=0;exitDy=0;entryX=0.5;entryY=0;entryDx=0;entryDy=0;" edge="1" parent="1" source="i2tNPv83OjAkMCDNKR-X-7" target="i2tNPv83OjAkMCDNKR-X-2">
          <mxGeometry relative="1" as="geometry" />
        </mxCell>
        <mxCell id="i2tNPv83OjAkMCDNKR-X-7" value="Password" style="ellipse;whiteSpace=wrap;html=1;fillColor=#B9E0A5;" vertex="1" parent="1">
          <mxGeometry x="150" y="20" width="110" height="50" as="geometry" />
        </mxCell>
        <mxCell id="i2tNPv83OjAkMCDNKR-X-28" style="edgeStyle=orthogonalEdgeStyle;rounded=0;orthogonalLoop=1;jettySize=auto;html=1;entryX=0.25;entryY=0;entryDx=0;entryDy=0;" edge="1" parent="1" source="i2tNPv83OjAkMCDNKR-X-8" target="i2tNPv83OjAkMCDNKR-X-2">
          <mxGeometry relative="1" as="geometry" />
        </mxCell>
        <mxCell id="i2tNPv83OjAkMCDNKR-X-8" value="ID pembimbing" style="ellipse;whiteSpace=wrap;html=1;fillColor=#B9E0A5;" vertex="1" parent="1">
          <mxGeometry x="60" y="140" width="110" height="50" as="geometry" />
        </mxCell>
        <mxCell id="i2tNPv83OjAkMCDNKR-X-37" style="edgeStyle=orthogonalEdgeStyle;rounded=0;orthogonalLoop=1;jettySize=auto;html=1;exitX=0;exitY=1;exitDx=0;exitDy=0;entryX=0.583;entryY=0;entryDx=0;entryDy=0;entryPerimeter=0;" edge="1" parent="1" source="i2tNPv83OjAkMCDNKR-X-9" target="i2tNPv83OjAkMCDNKR-X-2">
          <mxGeometry relative="1" as="geometry">
            <Array as="points">
              <mxPoint x="286" y="110" />
              <mxPoint x="260" y="110" />
            </Array>
          </mxGeometry>
        </mxCell>
        <mxCell id="i2tNPv83OjAkMCDNKR-X-9" value="Nama" style="ellipse;whiteSpace=wrap;html=1;fillColor=#B9E0A5;" vertex="1" parent="1">
          <mxGeometry x="270" y="20" width="110" height="50" as="geometry" />
        </mxCell>
        <mxCell id="i2tNPv83OjAkMCDNKR-X-38" style="edgeStyle=orthogonalEdgeStyle;rounded=0;orthogonalLoop=1;jettySize=auto;html=1;exitX=0;exitY=1;exitDx=0;exitDy=0;" edge="1" parent="1" source="i2tNPv83OjAkMCDNKR-X-10">
          <mxGeometry relative="1" as="geometry">
            <mxPoint x="270" y="190" as="targetPoint" />
          </mxGeometry>
        </mxCell>
        <mxCell id="i2tNPv83OjAkMCDNKR-X-10" value="Kontak" style="ellipse;whiteSpace=wrap;html=1;fillColor=#B9E0A5;" vertex="1" parent="1">
          <mxGeometry x="330" y="80" width="110" height="50" as="geometry" />
        </mxCell>
        <mxCell id="i2tNPv83OjAkMCDNKR-X-33" style="edgeStyle=orthogonalEdgeStyle;rounded=0;orthogonalLoop=1;jettySize=auto;html=1;exitX=0;exitY=0.5;exitDx=0;exitDy=0;entryX=0.75;entryY=0;entryDx=0;entryDy=0;" edge="1" parent="1" source="i2tNPv83OjAkMCDNKR-X-11" target="i2tNPv83OjAkMCDNKR-X-2">
          <mxGeometry relative="1" as="geometry" />
        </mxCell>
        <mxCell id="i2tNPv83OjAkMCDNKR-X-11" value="Link meeting" style="ellipse;whiteSpace=wrap;html=1;fillColor=#B9E0A5;" vertex="1" parent="1">
          <mxGeometry x="330" y="140" width="110" height="50" as="geometry" />
        </mxCell>
        <mxCell id="i2tNPv83OjAkMCDNKR-X-41" style="edgeStyle=orthogonalEdgeStyle;rounded=0;orthogonalLoop=1;jettySize=auto;html=1;exitX=1;exitY=0.5;exitDx=0;exitDy=0;entryX=0.368;entryY=0.01;entryDx=0;entryDy=0;entryPerimeter=0;" edge="1" parent="1" source="i2tNPv83OjAkMCDNKR-X-35" target="i2tNPv83OjAkMCDNKR-X-2">
          <mxGeometry relative="1" as="geometry" />
        </mxCell>
        <mxCell id="i2tNPv83OjAkMCDNKR-X-35" value="Kode Kelas" style="ellipse;whiteSpace=wrap;html=1;fillColor=#B9E0A5;" vertex="1" parent="1">
          <mxGeometry x="70" y="80" width="110" height="50" as="geometry" />
        </mxCell>
        <mxCell id="i2tNPv83OjAkMCDNKR-X-132" style="edgeStyle=orthogonalEdgeStyle;rounded=0;orthogonalLoop=1;jettySize=auto;html=1;exitX=0.5;exitY=1;exitDx=0;exitDy=0;" edge="1" parent="1" source="i2tNPv83OjAkMCDNKR-X-42" target="i2tNPv83OjAkMCDNKR-X-77">
          <mxGeometry relative="1" as="geometry" />
        </mxCell>
        <mxCell id="i2tNPv83OjAkMCDNKR-X-42" value="Santri" style="rounded=0;whiteSpace=wrap;html=1;fillColor=#99CCFF;" vertex="1" parent="1">
          <mxGeometry x="600" y="190" width="120" height="60" as="geometry" />
        </mxCell>
        <mxCell id="i2tNPv83OjAkMCDNKR-X-43" style="edgeStyle=orthogonalEdgeStyle;rounded=0;orthogonalLoop=1;jettySize=auto;html=1;exitX=1;exitY=1;exitDx=0;exitDy=0;entryX=0.5;entryY=0;entryDx=0;entryDy=0;" edge="1" parent="1" source="i2tNPv83OjAkMCDNKR-X-44" target="i2tNPv83OjAkMCDNKR-X-42">
          <mxGeometry relative="1" as="geometry" />
        </mxCell>
        <mxCell id="i2tNPv83OjAkMCDNKR-X-44" value="Password" style="ellipse;whiteSpace=wrap;html=1;fillColor=#B9E0A5;" vertex="1" parent="1">
          <mxGeometry x="560" y="20" width="110" height="50" as="geometry" />
        </mxCell>
        <mxCell id="i2tNPv83OjAkMCDNKR-X-45" style="edgeStyle=orthogonalEdgeStyle;rounded=0;orthogonalLoop=1;jettySize=auto;html=1;entryX=0.25;entryY=0;entryDx=0;entryDy=0;" edge="1" parent="1" source="i2tNPv83OjAkMCDNKR-X-46" target="i2tNPv83OjAkMCDNKR-X-42">
          <mxGeometry relative="1" as="geometry" />
        </mxCell>
        <mxCell id="i2tNPv83OjAkMCDNKR-X-46" value="ID santri" style="ellipse;whiteSpace=wrap;html=1;fillColor=#B9E0A5;" vertex="1" parent="1">
          <mxGeometry x="470" y="140" width="110" height="50" as="geometry" />
        </mxCell>
        <mxCell id="i2tNPv83OjAkMCDNKR-X-47" style="edgeStyle=orthogonalEdgeStyle;rounded=0;orthogonalLoop=1;jettySize=auto;html=1;exitX=0;exitY=1;exitDx=0;exitDy=0;entryX=0.583;entryY=0;entryDx=0;entryDy=0;entryPerimeter=0;" edge="1" parent="1" source="i2tNPv83OjAkMCDNKR-X-48" target="i2tNPv83OjAkMCDNKR-X-42">
          <mxGeometry relative="1" as="geometry">
            <Array as="points">
              <mxPoint x="696" y="110" />
              <mxPoint x="670" y="110" />
            </Array>
          </mxGeometry>
        </mxCell>
        <mxCell id="i2tNPv83OjAkMCDNKR-X-48" value="Nama" style="ellipse;whiteSpace=wrap;html=1;fillColor=#B9E0A5;" vertex="1" parent="1">
          <mxGeometry x="680" y="20" width="110" height="50" as="geometry" />
        </mxCell>
        <mxCell id="i2tNPv83OjAkMCDNKR-X-49" style="edgeStyle=orthogonalEdgeStyle;rounded=0;orthogonalLoop=1;jettySize=auto;html=1;exitX=0;exitY=1;exitDx=0;exitDy=0;" edge="1" parent="1" source="i2tNPv83OjAkMCDNKR-X-50">
          <mxGeometry relative="1" as="geometry">
            <mxPoint x="680" y="190" as="targetPoint" />
          </mxGeometry>
        </mxCell>
        <mxCell id="i2tNPv83OjAkMCDNKR-X-50" value="Kontak" style="ellipse;whiteSpace=wrap;html=1;fillColor=#B9E0A5;" vertex="1" parent="1">
          <mxGeometry x="740" y="80" width="110" height="50" as="geometry" />
        </mxCell>
        <mxCell id="i2tNPv83OjAkMCDNKR-X-51" style="edgeStyle=orthogonalEdgeStyle;rounded=0;orthogonalLoop=1;jettySize=auto;html=1;exitX=0;exitY=0.5;exitDx=0;exitDy=0;entryX=0.75;entryY=0;entryDx=0;entryDy=0;" edge="1" parent="1" source="i2tNPv83OjAkMCDNKR-X-52" target="i2tNPv83OjAkMCDNKR-X-42">
          <mxGeometry relative="1" as="geometry" />
        </mxCell>
        <mxCell id="i2tNPv83OjAkMCDNKR-X-52" value="Tanggal Lhir" style="ellipse;whiteSpace=wrap;html=1;fillColor=#B9E0A5;" vertex="1" parent="1">
          <mxGeometry x="740" y="140" width="110" height="50" as="geometry" />
        </mxCell>
        <mxCell id="i2tNPv83OjAkMCDNKR-X-53" style="edgeStyle=orthogonalEdgeStyle;rounded=0;orthogonalLoop=1;jettySize=auto;html=1;exitX=1;exitY=0.5;exitDx=0;exitDy=0;entryX=0.368;entryY=0.01;entryDx=0;entryDy=0;entryPerimeter=0;" edge="1" parent="1" source="i2tNPv83OjAkMCDNKR-X-54" target="i2tNPv83OjAkMCDNKR-X-42">
          <mxGeometry relative="1" as="geometry" />
        </mxCell>
        <mxCell id="i2tNPv83OjAkMCDNKR-X-54" value="ID pembimbing" style="ellipse;whiteSpace=wrap;html=1;fillColor=#B9E0A5;" vertex="1" parent="1">
          <mxGeometry x="480" y="80" width="110" height="50" as="geometry" />
        </mxCell>
        <mxCell id="i2tNPv83OjAkMCDNKR-X-57" style="edgeStyle=orthogonalEdgeStyle;rounded=0;orthogonalLoop=1;jettySize=auto;html=1;exitX=1;exitY=0.5;exitDx=0;exitDy=0;entryX=0;entryY=0.5;entryDx=0;entryDy=0;" edge="1" parent="1" source="i2tNPv83OjAkMCDNKR-X-55" target="i2tNPv83OjAkMCDNKR-X-42">
          <mxGeometry relative="1" as="geometry" />
        </mxCell>
        <mxCell id="i2tNPv83OjAkMCDNKR-X-55" value="Menerima Setoran" style="rhombus;whiteSpace=wrap;html=1;fillColor=#FFF2CC;" vertex="1" parent="1">
          <mxGeometry x="400" y="220" width="130" height="80" as="geometry" />
        </mxCell>
        <mxCell id="i2tNPv83OjAkMCDNKR-X-128" style="edgeStyle=orthogonalEdgeStyle;rounded=0;orthogonalLoop=1;jettySize=auto;html=1;entryX=0;entryY=0.5;entryDx=0;entryDy=0;" edge="1" parent="1" source="i2tNPv83OjAkMCDNKR-X-58" target="i2tNPv83OjAkMCDNKR-X-124">
          <mxGeometry relative="1" as="geometry" />
        </mxCell>
        <mxCell id="i2tNPv83OjAkMCDNKR-X-58" value="Setoran" style="rounded=0;whiteSpace=wrap;html=1;fillColor=#99CCFF;" vertex="1" parent="1">
          <mxGeometry x="510" y="460" width="120" height="60" as="geometry" />
        </mxCell>
        <mxCell id="i2tNPv83OjAkMCDNKR-X-73" style="edgeStyle=orthogonalEdgeStyle;rounded=0;orthogonalLoop=1;jettySize=auto;html=1;exitX=0;exitY=0;exitDx=0;exitDy=0;entryX=0.75;entryY=1;entryDx=0;entryDy=0;" edge="1" parent="1" source="i2tNPv83OjAkMCDNKR-X-60" target="i2tNPv83OjAkMCDNKR-X-58">
          <mxGeometry relative="1" as="geometry">
            <Array as="points">
              <mxPoint x="590" y="627" />
              <mxPoint x="590" y="520" />
            </Array>
          </mxGeometry>
        </mxCell>
        <mxCell id="i2tNPv83OjAkMCDNKR-X-60" value="Waktu Setoran" style="ellipse;whiteSpace=wrap;html=1;fillColor=#B9E0A5;" vertex="1" parent="1">
          <mxGeometry x="580" y="620" width="110" height="50" as="geometry" />
        </mxCell>
        <mxCell id="i2tNPv83OjAkMCDNKR-X-75" style="edgeStyle=orthogonalEdgeStyle;rounded=0;orthogonalLoop=1;jettySize=auto;html=1;exitX=1;exitY=0.5;exitDx=0;exitDy=0;entryX=0.192;entryY=1.043;entryDx=0;entryDy=0;entryPerimeter=0;" edge="1" parent="1" source="i2tNPv83OjAkMCDNKR-X-62" target="i2tNPv83OjAkMCDNKR-X-58">
          <mxGeometry relative="1" as="geometry" />
        </mxCell>
        <mxCell id="i2tNPv83OjAkMCDNKR-X-62" value="ID setoran" style="ellipse;whiteSpace=wrap;html=1;fillColor=#B9E0A5;" vertex="1" parent="1">
          <mxGeometry x="400" y="560" width="110" height="50" as="geometry" />
        </mxCell>
        <mxCell id="i2tNPv83OjAkMCDNKR-X-72" style="edgeStyle=orthogonalEdgeStyle;rounded=0;orthogonalLoop=1;jettySize=auto;html=1;entryX=0.917;entryY=1;entryDx=0;entryDy=0;entryPerimeter=0;" edge="1" parent="1" source="i2tNPv83OjAkMCDNKR-X-64" target="i2tNPv83OjAkMCDNKR-X-58">
          <mxGeometry relative="1" as="geometry" />
        </mxCell>
        <mxCell id="i2tNPv83OjAkMCDNKR-X-64" value="Keterangan" style="ellipse;whiteSpace=wrap;html=1;fillColor=#B9E0A5;" vertex="1" parent="1">
          <mxGeometry x="650" y="560" width="110" height="50" as="geometry" />
        </mxCell>
        <mxCell id="i2tNPv83OjAkMCDNKR-X-76" style="edgeStyle=orthogonalEdgeStyle;rounded=0;orthogonalLoop=1;jettySize=auto;html=1;exitX=1;exitY=0;exitDx=0;exitDy=0;" edge="1" parent="1" source="i2tNPv83OjAkMCDNKR-X-70" target="i2tNPv83OjAkMCDNKR-X-58">
          <mxGeometry relative="1" as="geometry">
            <Array as="points">
              <mxPoint x="570" y="627" />
            </Array>
          </mxGeometry>
        </mxCell>
        <mxCell id="i2tNPv83OjAkMCDNKR-X-70" value="ID santri" style="ellipse;whiteSpace=wrap;html=1;fillColor=#B9E0A5;" vertex="1" parent="1">
          <mxGeometry x="450" y="620" width="110" height="50" as="geometry" />
        </mxCell>
        <mxCell id="i2tNPv83OjAkMCDNKR-X-127" style="edgeStyle=orthogonalEdgeStyle;rounded=0;orthogonalLoop=1;jettySize=auto;html=1;exitX=0.5;exitY=1;exitDx=0;exitDy=0;entryX=0.5;entryY=0;entryDx=0;entryDy=0;" edge="1" parent="1" source="i2tNPv83OjAkMCDNKR-X-77" target="i2tNPv83OjAkMCDNKR-X-58">
          <mxGeometry relative="1" as="geometry" />
        </mxCell>
        <mxCell id="i2tNPv83OjAkMCDNKR-X-77" value="Menyetorkan" style="rhombus;whiteSpace=wrap;html=1;fillColor=#FFF2CC;" vertex="1" parent="1">
          <mxGeometry x="595" y="300" width="130" height="80" as="geometry" />
        </mxCell>
        <mxCell id="i2tNPv83OjAkMCDNKR-X-129" style="edgeStyle=orthogonalEdgeStyle;rounded=0;orthogonalLoop=1;jettySize=auto;html=1;exitX=0.5;exitY=0;exitDx=0;exitDy=0;entryX=0.5;entryY=1;entryDx=0;entryDy=0;" edge="1" parent="1" source="i2tNPv83OjAkMCDNKR-X-81" target="i2tNPv83OjAkMCDNKR-X-111">
          <mxGeometry relative="1" as="geometry" />
        </mxCell>
        <mxCell id="i2tNPv83OjAkMCDNKR-X-81" value="Item Setoran" style="rounded=0;whiteSpace=wrap;html=1;fillColor=#99CCFF;" vertex="1" parent="1">
          <mxGeometry x="920" y="530" width="120" height="60" as="geometry" />
        </mxCell>
        <mxCell id="i2tNPv83OjAkMCDNKR-X-105" style="edgeStyle=orthogonalEdgeStyle;rounded=0;orthogonalLoop=1;jettySize=auto;html=1;exitX=0;exitY=0;exitDx=0;exitDy=0;entryX=0.5;entryY=1;entryDx=0;entryDy=0;" edge="1" parent="1" source="i2tNPv83OjAkMCDNKR-X-83" target="i2tNPv83OjAkMCDNKR-X-81">
          <mxGeometry relative="1" as="geometry" />
        </mxCell>
        <mxCell id="i2tNPv83OjAkMCDNKR-X-83" value="ID ayat" style="ellipse;whiteSpace=wrap;html=1;fillColor=#B9E0A5;" vertex="1" parent="1">
          <mxGeometry x="980" y="630" width="110" height="50" as="geometry" />
        </mxCell>
        <mxCell id="i2tNPv83OjAkMCDNKR-X-104" style="edgeStyle=orthogonalEdgeStyle;rounded=0;orthogonalLoop=1;jettySize=auto;html=1;exitX=1;exitY=0;exitDx=0;exitDy=0;entryX=0.417;entryY=1;entryDx=0;entryDy=0;entryPerimeter=0;" edge="1" parent="1" source="i2tNPv83OjAkMCDNKR-X-85" target="i2tNPv83OjAkMCDNKR-X-81">
          <mxGeometry relative="1" as="geometry" />
        </mxCell>
        <mxCell id="i2tNPv83OjAkMCDNKR-X-85" value="ID setoran" style="ellipse;whiteSpace=wrap;html=1;fillColor=#B9E0A5;" vertex="1" parent="1">
          <mxGeometry x="860" y="630" width="110" height="50" as="geometry" />
        </mxCell>
        <mxCell id="i2tNPv83OjAkMCDNKR-X-130" style="edgeStyle=orthogonalEdgeStyle;rounded=0;orthogonalLoop=1;jettySize=auto;html=1;exitX=1;exitY=0.5;exitDx=0;exitDy=0;entryX=0;entryY=0.5;entryDx=0;entryDy=0;" edge="1" parent="1" source="i2tNPv83OjAkMCDNKR-X-90" target="i2tNPv83OjAkMCDNKR-X-120">
          <mxGeometry relative="1" as="geometry" />
        </mxCell>
        <mxCell id="i2tNPv83OjAkMCDNKR-X-90" value="Ayat" style="rounded=0;whiteSpace=wrap;html=1;fillColor=#99CCFF;" vertex="1" parent="1">
          <mxGeometry x="920" y="330" width="120" height="60" as="geometry" />
        </mxCell>
        <mxCell id="i2tNPv83OjAkMCDNKR-X-107" style="edgeStyle=orthogonalEdgeStyle;rounded=0;orthogonalLoop=1;jettySize=auto;html=1;exitX=0;exitY=1;exitDx=0;exitDy=0;entryX=0.5;entryY=0;entryDx=0;entryDy=0;" edge="1" parent="1" source="i2tNPv83OjAkMCDNKR-X-92" target="i2tNPv83OjAkMCDNKR-X-90">
          <mxGeometry relative="1" as="geometry" />
        </mxCell>
        <mxCell id="i2tNPv83OjAkMCDNKR-X-92" value="no.ayat" style="ellipse;whiteSpace=wrap;html=1;fillColor=#B9E0A5;" vertex="1" parent="1">
          <mxGeometry x="980" y="190" width="110" height="50" as="geometry" />
        </mxCell>
        <mxCell id="i2tNPv83OjAkMCDNKR-X-109" style="edgeStyle=orthogonalEdgeStyle;rounded=0;orthogonalLoop=1;jettySize=auto;html=1;exitX=1;exitY=1;exitDx=0;exitDy=0;entryX=0.182;entryY=-0.043;entryDx=0;entryDy=0;entryPerimeter=0;" edge="1" parent="1" source="i2tNPv83OjAkMCDNKR-X-94" target="i2tNPv83OjAkMCDNKR-X-90">
          <mxGeometry relative="1" as="geometry" />
        </mxCell>
        <mxCell id="i2tNPv83OjAkMCDNKR-X-94" value="ID ayati" style="ellipse;whiteSpace=wrap;html=1;fillColor=#B9E0A5;" vertex="1" parent="1">
          <mxGeometry x="820" y="240" width="110" height="50" as="geometry" />
        </mxCell>
        <mxCell id="i2tNPv83OjAkMCDNKR-X-110" style="edgeStyle=orthogonalEdgeStyle;rounded=0;orthogonalLoop=1;jettySize=auto;html=1;exitX=0;exitY=1;exitDx=0;exitDy=0;entryX=0.688;entryY=-0.017;entryDx=0;entryDy=0;entryPerimeter=0;" edge="1" parent="1" source="i2tNPv83OjAkMCDNKR-X-96" target="i2tNPv83OjAkMCDNKR-X-90">
          <mxGeometry relative="1" as="geometry" />
        </mxCell>
        <mxCell id="i2tNPv83OjAkMCDNKR-X-96" value="juz" style="ellipse;whiteSpace=wrap;html=1;fillColor=#B9E0A5;" vertex="1" parent="1">
          <mxGeometry x="1020" y="240" width="110" height="50" as="geometry" />
        </mxCell>
        <mxCell id="i2tNPv83OjAkMCDNKR-X-106" style="edgeStyle=orthogonalEdgeStyle;rounded=0;orthogonalLoop=1;jettySize=auto;html=1;exitX=1;exitY=1;exitDx=0;exitDy=0;entryX=0.375;entryY=-0.03;entryDx=0;entryDy=0;entryPerimeter=0;" edge="1" parent="1" source="i2tNPv83OjAkMCDNKR-X-102" target="i2tNPv83OjAkMCDNKR-X-90">
          <mxGeometry relative="1" as="geometry" />
        </mxCell>
        <mxCell id="i2tNPv83OjAkMCDNKR-X-102" value="ID surat" style="ellipse;whiteSpace=wrap;html=1;fillColor=#B9E0A5;" vertex="1" parent="1">
          <mxGeometry x="860" y="190" width="110" height="50" as="geometry" />
        </mxCell>
        <mxCell id="i2tNPv83OjAkMCDNKR-X-113" style="edgeStyle=orthogonalEdgeStyle;rounded=0;orthogonalLoop=1;jettySize=auto;html=1;entryX=0.5;entryY=1;entryDx=0;entryDy=0;" edge="1" parent="1" source="i2tNPv83OjAkMCDNKR-X-111" target="i2tNPv83OjAkMCDNKR-X-90">
          <mxGeometry relative="1" as="geometry" />
        </mxCell>
        <mxCell id="i2tNPv83OjAkMCDNKR-X-111" value="Berisi" style="rhombus;whiteSpace=wrap;html=1;fillColor=#FFF2CC;" vertex="1" parent="1">
          <mxGeometry x="915" y="420" width="130" height="80" as="geometry" />
        </mxCell>
        <mxCell id="i2tNPv83OjAkMCDNKR-X-114" value="Surat" style="rounded=0;whiteSpace=wrap;html=1;fillColor=#99CCFF;" vertex="1" parent="1">
          <mxGeometry x="1186" y="530" width="120" height="60" as="geometry" />
        </mxCell>
        <mxCell id="i2tNPv83OjAkMCDNKR-X-115" style="edgeStyle=orthogonalEdgeStyle;rounded=0;orthogonalLoop=1;jettySize=auto;html=1;exitX=0;exitY=0;exitDx=0;exitDy=0;entryX=0.5;entryY=1;entryDx=0;entryDy=0;" edge="1" source="i2tNPv83OjAkMCDNKR-X-116" target="i2tNPv83OjAkMCDNKR-X-114" parent="1">
          <mxGeometry relative="1" as="geometry" />
        </mxCell>
        <mxCell id="i2tNPv83OjAkMCDNKR-X-116" value="Nama Surat" style="ellipse;whiteSpace=wrap;html=1;fillColor=#B9E0A5;" vertex="1" parent="1">
          <mxGeometry x="1246" y="630" width="110" height="50" as="geometry" />
        </mxCell>
        <mxCell id="i2tNPv83OjAkMCDNKR-X-117" style="edgeStyle=orthogonalEdgeStyle;rounded=0;orthogonalLoop=1;jettySize=auto;html=1;exitX=1;exitY=0;exitDx=0;exitDy=0;entryX=0.417;entryY=1;entryDx=0;entryDy=0;entryPerimeter=0;" edge="1" source="i2tNPv83OjAkMCDNKR-X-118" target="i2tNPv83OjAkMCDNKR-X-114" parent="1">
          <mxGeometry relative="1" as="geometry" />
        </mxCell>
        <mxCell id="i2tNPv83OjAkMCDNKR-X-118" value="ID surat" style="ellipse;whiteSpace=wrap;html=1;fillColor=#B9E0A5;" vertex="1" parent="1">
          <mxGeometry x="1126" y="630" width="110" height="50" as="geometry" />
        </mxCell>
        <mxCell id="i2tNPv83OjAkMCDNKR-X-123" style="edgeStyle=orthogonalEdgeStyle;rounded=0;orthogonalLoop=1;jettySize=auto;html=1;" edge="1" parent="1" source="i2tNPv83OjAkMCDNKR-X-120" target="i2tNPv83OjAkMCDNKR-X-114">
          <mxGeometry relative="1" as="geometry">
            <mxPoint x="1290" y="520" as="targetPoint" />
            <Array as="points">
              <mxPoint x="1246" y="440" />
            </Array>
          </mxGeometry>
        </mxCell>
        <mxCell id="i2tNPv83OjAkMCDNKR-X-120" value="Berada pada" style="rhombus;whiteSpace=wrap;html=1;fillColor=#FFF2CC;" vertex="1" parent="1">
          <mxGeometry x="1090" y="400" width="130" height="80" as="geometry" />
        </mxCell>
        <mxCell id="i2tNPv83OjAkMCDNKR-X-126" style="edgeStyle=orthogonalEdgeStyle;rounded=0;orthogonalLoop=1;jettySize=auto;html=1;exitX=1;exitY=0.5;exitDx=0;exitDy=0;entryX=0;entryY=0.5;entryDx=0;entryDy=0;" edge="1" parent="1" source="i2tNPv83OjAkMCDNKR-X-124" target="i2tNPv83OjAkMCDNKR-X-81">
          <mxGeometry relative="1" as="geometry" />
        </mxCell>
        <mxCell id="i2tNPv83OjAkMCDNKR-X-124" value="Memuat" style="rhombus;whiteSpace=wrap;html=1;fillColor=#FFF2CC;" vertex="1" parent="1">
          <mxGeometry x="710" y="450" width="130" height="80" as="geometry" />
        </mxCell>
      </root>
    </mxGraphModel>
  </diagram>
</mxfile>
